<svg width="220" height="24" viewBox="0 0 220 24" fill="none" xmlns="http://www.w3.org/2000/svg">
<path d="M20.862 23.2939H13.49L8.968 14.2879C7.98 12.2739 6.27 8.51194 5.168 5.85194H5.054C5.168 8.77794 5.206 12.3119 5.206 14.5539V23.2939H6.55651e-07V0.493944H8.246L11.97 8.13194C13.148 10.7159 14.592 14.0219 15.618 16.5679H15.77C15.732 13.9459 15.656 11.3619 15.656 9.27194V0.493944H20.862V23.2939ZM31.6294 23.7879C26.2334 23.7879 22.3954 20.6719 22.3954 14.6679C22.3954 8.43594 25.8914 4.78794 31.7054 4.78794C37.2534 4.78794 39.9514 8.28394 39.9514 13.2239V13.6039C39.9514 14.2119 39.9894 14.8199 39.8754 15.6179H27.5634C27.9054 18.2019 29.2734 19.3419 31.7054 19.3419C34.0994 19.3419 34.8974 18.1639 35.3154 16.7579L39.7994 18.0119C38.8874 21.2799 36.6074 23.7879 31.6294 23.7879ZM27.5634 12.6919H35.2014C35.0494 10.2979 33.8334 9.08194 31.5534 9.08194C29.2734 9.08194 27.9054 10.1459 27.5634 12.6919ZM39.4957 5.28194H45.4997L48.5017 11.9699H48.8057L51.6177 5.28194H57.1277V5.35794L52.5297 14.6299L57.3557 23.2179V23.2939H51.3517L48.3117 16.5299H48.0077L45.1957 23.2939H39.3817V23.2179L44.2837 13.9079L39.4957 5.35794V5.28194ZM56.8646 9.61394V5.28194H58.9546V0.759943H64.1226V5.28194H68.8726V9.61394H64.1226V16.6439C64.1226 18.0499 64.6546 18.7719 66.2126 18.7719C67.0106 18.7719 67.9226 18.5059 68.5686 18.3539L69.1386 23.1419C67.7706 23.5599 66.8586 23.8259 64.8826 23.8259C60.7026 23.8259 58.9546 21.0519 58.9546 17.6319V9.61394H56.8646ZM84.9125 5.05394H84.7225C84.2665 7.75194 83.7725 10.6019 83.3165 13.1479L81.4545 23.2939H74.0445L68.4585 0.493944H74.3485L76.4005 10.2599C76.8945 13.1099 77.4265 15.6939 77.7685 18.4299H78.0345C78.4905 15.5799 78.9845 12.9579 79.5545 10.2599L81.7205 0.493944H88.6365L90.6885 10.2599C91.1825 12.9579 91.6385 15.5799 92.0565 18.4299H92.3605C92.7785 15.6939 93.3105 13.1099 93.8045 10.2599L95.7045 0.493944H101.29L95.7045 23.2939H88.1805L86.2425 13.1479C85.7865 10.6019 85.3305 7.75194 84.9125 5.05394ZM105.244 23.6739C102.166 23.6739 99.772 21.9639 99.772 18.4299C99.772 15.1239 101.71 12.9199 106.46 12.9199H111.134V12.1599C111.134 10.1839 110.298 9.15794 108.322 9.15794C106.612 9.15794 105.51 9.87994 105.168 12.0079L100.304 11.3239C100.76 7.59994 102.926 4.86394 108.55 4.86394C114.022 4.86394 116.302 7.52394 116.302 12.1219V23.2939H111.134V18.8859H111.058C110.26 21.9639 108.322 23.6739 105.244 23.6739ZM111.134 16.3779V15.8459H107.258C105.738 15.8459 104.826 16.4919 104.826 17.5179C104.826 18.6199 105.51 19.4939 107.486 19.4939C109.728 19.4939 111.134 18.2019 111.134 16.3779ZM117.019 9.61394V5.28194H119.109V0.759943H124.277V5.28194H129.027V9.61394H124.277V16.6439C124.277 18.0499 124.809 18.7719 126.367 18.7719C127.165 18.7719 128.077 18.5059 128.723 18.3539L129.293 23.1419C127.925 23.5599 127.013 23.8259 125.037 23.8259C120.857 23.8259 119.109 21.0519 119.109 17.6319V9.61394H117.019ZM147.47 12.3879L142.454 13.1099C142.036 11.0199 140.972 9.49995 138.692 9.49995C136.374 9.49995 134.702 10.9439 134.702 14.2499C134.702 17.4799 136.298 19.0759 138.73 19.0759C141.162 19.0759 142.036 17.4419 142.492 15.1619L147.47 16.1119C146.862 20.8239 144.202 23.8259 138.844 23.8259C133.182 23.8259 129.382 20.6339 129.382 14.4019C129.382 8.32194 133.068 4.78794 138.73 4.78794C144.392 4.78794 146.748 7.52394 147.47 12.3879ZM154.086 -5.60284e-05V10.3359H154.124C154.998 6.19394 157.126 4.78794 160.014 4.78794C163.928 4.78794 165.562 7.33394 165.562 11.2479V23.2939H160.394V12.7299C160.394 10.9059 159.52 9.46194 157.392 9.46194C155.264 9.46194 154.086 10.6399 154.086 12.7299V23.2939H148.88V-5.60284e-05H154.086ZM167.66 0.493944H173.132V18.1259H182.936V23.2939H167.66V0.493944ZM189.12 5.28194V23.2939H183.952V5.28194H189.12ZM189.234 -5.60284e-05V3.38194H183.838V-5.60284e-05H189.234ZM198.933 23.8259C192.853 23.8259 190.991 21.0519 190.459 17.7459L195.285 16.7959C195.779 18.8099 196.805 19.9879 199.047 19.9879C200.719 19.9879 201.555 19.4179 201.593 18.2779C201.593 17.2519 200.909 16.7199 197.679 16.0739C192.625 15.0099 190.915 13.2619 190.915 10.3359C190.915 6.87794 193.423 4.78794 198.439 4.78794C203.607 4.78794 205.697 6.91594 206.419 10.2599L201.479 11.3619C201.023 9.42394 200.187 8.51194 198.401 8.51194C196.843 8.51194 196.045 9.04394 196.045 10.1079C196.045 11.0579 196.501 11.8179 200.035 12.4259C205.203 13.4899 206.685 15.3899 206.685 18.0879C206.685 21.6219 204.291 23.8259 198.933 23.8259ZM207.12 9.61394V5.28194H209.21V0.759943H214.378V5.28194H219.128V9.61394H214.378V16.6439C214.378 18.0499 214.91 18.7719 216.468 18.7719C217.266 18.7719 218.178 18.5059 218.824 18.3539L219.394 23.1419C218.026 23.5599 217.114 23.8259 215.138 23.8259C210.958 23.8259 209.21 21.0519 209.21 17.6319V9.61394H207.12Z" fill="white"/>
</svg>
